<svg xmlns="http://www.w3.org/2000/svg" xmlns:xlink="http://www.w3.org/1999/xlink" width="500" zoomAndPan="magnify" viewBox="0 0 375 374.999991" height="500" preserveAspectRatio="xMidYMid meet" version="1.0"><defs><g/></defs><g fill="#07011b" fill-opacity="1"><g transform="translate(6.168334, 211.032408)"><g><path d="M 28.667969 -28.519531 C 25.683594 -29.714844 14.707031 -31.355469 14.707031 -35.910156 C 14.707031 -39.269531 18.8125 -40.238281 21.277344 -40.238281 C 23.515625 -40.238281 26.203125 -39.566406 27.621094 -38.222656 C 28.519531 -37.328125 28.890625 -36.730469 29.191406 -35.984375 C 29.5625 -35.015625 29.789062 -33.96875 31.207031 -33.96875 L 38.523438 -33.96875 C 40.238281 -33.96875 40.6875 -34.265625 40.6875 -36.058594 C 40.6875 -45.914062 30.3125 -50.242188 20.828125 -50.242188 C 11.496094 -49.871094 2.6875 -45.09375 2.6875 -35.386719 C 2.6875 -25.90625 9.628906 -22.917969 17.171875 -20.53125 C 23.515625 -18.515625 30.160156 -18.441406 30.160156 -14.257812 C 30.160156 -10.078125 26.875 -9.183594 22.84375 -9.183594 C 20.082031 -9.183594 17.023438 -9.855469 15.527344 -11.644531 C 14.558594 -12.765625 14.183594 -13.738281 14.109375 -14.707031 C 13.960938 -16.574219 13.140625 -16.796875 11.421875 -16.796875 L 4.179688 -16.796875 C 2.464844 -16.796875 2.015625 -16.425781 2.015625 -14.707031 C 2.015625 -4.253906 12.765625 1.121094 22.097656 1.121094 C 33.59375 1.121094 41.957031 -3.957031 41.957031 -14.558594 C 41.957031 -24.710938 34.042969 -26.875 28.667969 -28.519531 Z M 28.667969 -28.519531 "/></g></g></g><g fill="#07011b" fill-opacity="1"><g transform="translate(51.326617, 211.032408)"><g><path d="M 38.746094 -49.125 L 4.105469 -49.125 C 2.390625 -49.125 1.941406 -48.304688 1.941406 -46.960938 L 1.941406 -40.761719 C 1.941406 -39.417969 2.390625 -38.597656 4.105469 -38.597656 L 15.601562 -38.597656 L 15.601562 -2.164062 C 15.601562 -0.449219 16.425781 0 17.769531 0 L 25.160156 0 C 26.503906 0 27.324219 -0.449219 27.324219 -2.164062 L 27.324219 -38.597656 L 38.746094 -38.597656 C 40.464844 -38.597656 40.910156 -39.417969 40.910156 -40.761719 L 40.910156 -46.960938 C 40.910156 -48.304688 40.464844 -49.125 38.746094 -49.125 Z M 38.746094 -49.125 "/></g></g></g><g fill="#07011b" fill-opacity="1"><g transform="translate(94.170999, 211.032408)"><g><path d="M 41.136719 -10.453125 L 17.320312 -10.453125 L 17.320312 -20.304688 L 37.328125 -20.304688 C 39.046875 -20.304688 39.492188 -21.128906 39.492188 -22.472656 L 39.492188 -28.292969 C 39.492188 -29.636719 39.046875 -30.460938 37.328125 -30.460938 L 17.320312 -30.460938 L 17.320312 -38.597656 L 39.867188 -38.597656 C 41.582031 -38.597656 42.03125 -39.417969 42.03125 -40.761719 L 42.03125 -46.960938 C 42.03125 -48.304688 41.582031 -49.125 39.867188 -49.125 L 7.691406 -49.125 C 5.972656 -49.125 5.523438 -48.304688 5.523438 -46.960938 L 5.523438 -2.164062 C 5.523438 -0.820312 5.972656 0 7.691406 0 L 41.136719 0 C 42.851562 0 43.300781 -0.820312 43.300781 -2.164062 L 43.300781 -8.285156 C 43.300781 -9.628906 42.851562 -10.453125 41.136719 -10.453125 Z M 41.136719 -10.453125 "/></g></g></g><g fill="#07011b" fill-opacity="1"><g transform="translate(140.971397, 211.032408)"><g><path d="M 47.78125 -2.089844 L 31.28125 -46.808594 C 30.609375 -48.378906 29.863281 -49.125 28.21875 -49.125 L 21.054688 -49.125 C 19.410156 -49.125 18.589844 -48.378906 17.992188 -46.808594 L 1.417969 -2.089844 C 1.046875 -1.195312 1.046875 0 2.6875 0 L 10.527344 0 C 12.167969 0 12.765625 -0.449219 13.363281 -2.238281 L 15.453125 -8.136719 L 33.746094 -8.136719 L 35.835938 -2.238281 C 36.433594 -0.449219 37.03125 0 38.671875 0 L 46.511719 0 C 48.152344 0 48.152344 -1.195312 47.78125 -2.089844 Z M 24.636719 -35.089844 L 30.234375 -18.589844 L 19.039062 -18.589844 Z M 24.636719 -35.089844 "/></g></g></g><g fill="#07011b" fill-opacity="1"><g transform="translate(189.861768, 211.032408)"><g><path d="M 49.570312 -49.199219 L 42.40625 -49.199219 C 39.941406 -49.199219 39.566406 -47.554688 39.046875 -46.660156 L 28.742188 -28.292969 L 18.515625 -46.660156 C 17.917969 -47.554688 17.617188 -49.199219 15.082031 -49.199219 L 7.691406 -49.199219 C 5.972656 -49.199219 5.523438 -48.378906 5.523438 -47.035156 L 5.523438 -2.164062 C 5.523438 -0.449219 6.347656 0 7.691406 0 L 15.082031 0 C 16.425781 0 17.246094 -0.449219 17.246094 -2.164062 L 17.246094 -27.472656 L 24.785156 -14.410156 C 25.160156 -13.8125 25.757812 -12.839844 26.875 -12.839844 L 30.609375 -12.839844 C 31.730469 -12.839844 32.402344 -13.8125 32.773438 -14.410156 L 40.238281 -27.472656 L 40.238281 -2.164062 C 40.238281 -0.449219 41.0625 0 42.40625 0 L 49.570312 0 C 50.914062 0 51.738281 -0.449219 51.738281 -2.164062 L 51.738281 -47.035156 C 51.738281 -48.378906 51.289062 -49.199219 49.570312 -49.199219 Z M 49.570312 -49.199219 "/></g></g></g><g fill="#bf1c14" fill-opacity="1"><g transform="translate(247.099806, 211.032408)"><g><path d="M 28.667969 -28.519531 C 25.683594 -29.714844 14.707031 -31.355469 14.707031 -35.910156 C 14.707031 -39.269531 18.8125 -40.238281 21.277344 -40.238281 C 23.515625 -40.238281 26.203125 -39.566406 27.621094 -38.222656 C 28.519531 -37.328125 28.890625 -36.730469 29.191406 -35.984375 C 29.5625 -35.015625 29.789062 -33.96875 31.207031 -33.96875 L 38.523438 -33.96875 C 40.238281 -33.96875 40.6875 -34.265625 40.6875 -36.058594 C 40.6875 -45.914062 30.3125 -50.242188 20.828125 -50.242188 C 11.496094 -49.871094 2.6875 -45.09375 2.6875 -35.386719 C 2.6875 -25.90625 9.628906 -22.917969 17.171875 -20.53125 C 23.515625 -18.515625 30.160156 -18.441406 30.160156 -14.257812 C 30.160156 -10.078125 26.875 -9.183594 22.84375 -9.183594 C 20.082031 -9.183594 17.023438 -9.855469 15.527344 -11.644531 C 14.558594 -12.765625 14.183594 -13.738281 14.109375 -14.707031 C 13.960938 -16.574219 13.140625 -16.796875 11.421875 -16.796875 L 4.179688 -16.796875 C 2.464844 -16.796875 2.015625 -16.425781 2.015625 -14.707031 C 2.015625 -4.253906 12.765625 1.121094 22.097656 1.121094 C 33.59375 1.121094 41.957031 -3.957031 41.957031 -14.558594 C 41.957031 -24.710938 34.042969 -26.875 28.667969 -28.519531 Z M 28.667969 -28.519531 "/></g></g></g><g fill="#e8c827" fill-opacity="1"><g transform="translate(292.249566, 211.032408)"><g><path d="M 26.875 -10.226562 L 22.171875 -10.226562 L 22.171875 -38.746094 L 26.652344 -38.746094 C 28.371094 -38.746094 28.816406 -39.566406 28.816406 -40.910156 L 28.816406 -46.960938 C 28.816406 -48.304688 28.371094 -49.125 26.652344 -49.125 L 5.898438 -49.125 C 4.179688 -49.125 3.734375 -48.304688 3.734375 -46.960938 L 3.734375 -40.910156 C 3.734375 -39.566406 4.179688 -38.746094 5.898438 -38.746094 L 10.453125 -38.746094 L 10.453125 -10.226562 L 5.75 -10.226562 C 4.03125 -10.226562 3.582031 -9.40625 3.582031 -8.0625 L 3.582031 -2.164062 C 3.582031 -0.820312 4.03125 0 5.75 0 L 26.875 0 C 28.59375 0 29.042969 -0.820312 29.042969 -2.164062 L 29.042969 -8.0625 C 29.042969 -9.40625 28.59375 -10.226562 26.875 -10.226562 Z M 26.875 -10.226562 "/></g></g></g><g fill="#010167" fill-opacity="1"><g transform="translate(325.38798, 211.032408)"><g><path d="M 38.746094 -10.453125 L 17.246094 -10.453125 L 17.246094 -46.960938 C 17.246094 -48.675781 16.425781 -49.125 15.082031 -49.125 L 7.691406 -49.125 C 6.347656 -49.125 5.523438 -48.675781 5.523438 -46.960938 L 5.523438 -2.164062 C 5.523438 -0.820312 5.972656 0 7.691406 0 L 38.746094 0 C 40.464844 0 40.910156 -0.820312 40.910156 -2.164062 L 40.910156 -8.285156 C 40.910156 -9.628906 40.464844 -10.453125 38.746094 -10.453125 Z M 38.746094 -10.453125 "/></g></g></g></svg>